<svg width="1324" height="299" viewBox="0 0 1324 299" fill="none" xmlns="http://www.w3.org/2000/svg">
<mask id="path-1-outside-1_226_24" maskUnits="userSpaceOnUse" x="0" y="0" width="1324" height="344" fill="black">
<rect fill="white" width="1324" height="344"/>
<path d="M179.399 21.7H267.441V204.837C267.441 229.559 262.664 251.096 253.109 269.447C243.554 287.799 229.449 302.056 210.794 312.217C192.29 322.379 169.464 327.46 142.316 327.46C115.168 327.46 92.1902 322.379 73.3836 312.217C54.7286 302.056 40.6236 287.799 31.0686 269.447C21.5136 251.096 16.7361 229.559 16.7361 204.837V21.7H104.779V200.06C104.779 211.132 106.144 220.232 108.874 227.36C111.604 234.337 115.699 239.493 121.159 242.83C126.77 246.167 133.823 247.835 142.316 247.835C150.658 247.835 157.559 246.167 163.019 242.83C168.479 239.493 172.574 234.337 175.304 227.36C178.034 220.232 179.399 211.132 179.399 200.06V21.7ZM428.266 240.1C438.882 240.1 449.12 238.432 458.978 235.095C468.988 231.758 476.723 228.422 482.183 225.085L519.721 299.705C512.441 305.772 500.08 311.914 482.638 318.132C465.197 324.351 444.646 327.46 420.986 327.46C398.842 327.46 377.912 323.668 358.196 316.085C338.479 308.35 320.962 297.506 305.643 283.552C290.477 269.599 278.571 253.219 269.926 234.412C261.281 215.454 256.958 194.752 256.958 172.305C256.958 149.858 261.281 129.156 269.926 110.197C278.571 91.0875 290.477 74.5558 305.643 60.6025C320.81 46.4975 338.252 35.5775 357.968 27.8425C377.837 20.1075 398.842 16.24 420.986 16.24C444.646 16.24 465.197 19.3491 482.638 25.5675C500.08 31.7858 512.441 37.9283 519.721 43.995L482.183 118.615C476.723 115.278 468.988 111.942 458.978 108.605C449.12 105.268 438.882 103.6 428.266 103.6C413.857 103.6 401.8 105.647 392.093 109.742C382.387 113.837 374.576 119.297 368.661 126.122C362.897 132.796 358.727 140.152 356.148 148.19C353.722 156.077 352.508 163.887 352.508 171.622C352.508 179.509 353.722 187.472 356.148 195.51C358.727 203.548 362.897 210.98 368.661 217.805C374.576 224.478 382.387 229.862 392.093 233.957C401.8 238.052 413.857 240.1 428.266 240.1ZM509.174 21.7H612.914C644.916 21.7 671.533 28.1458 692.767 41.0375C714.152 53.7775 730.228 71.4467 740.997 94.045C751.765 116.643 757.149 142.502 757.149 171.622C757.149 200.894 751.765 226.829 740.997 249.427C730.228 272.026 714.152 289.771 692.767 302.662C671.533 315.554 644.916 322 612.914 322H509.174V21.7ZM597.217 99.2775V244.422H604.952C617.54 244.422 628.157 241.237 636.802 234.867C645.447 228.497 652.044 219.852 656.594 208.932C661.144 197.861 663.419 185.576 663.419 172.077C663.419 158.427 661.144 146.142 656.594 135.222C652.196 124.151 645.598 115.43 636.802 109.06C628.157 102.538 617.54 99.2775 604.952 99.2775H597.217ZM817.479 246.242C818.238 249.882 820.133 252.992 823.167 255.57C826.352 257.997 830.371 259.892 835.224 261.257C840.229 262.622 845.841 263.305 852.059 263.305C858.733 263.305 865.254 263.002 871.624 262.395C877.994 261.788 883.833 260.802 889.142 259.437C894.45 258.072 898.697 256.328 901.882 254.205L933.959 310.397C931.078 312.217 926.3 314.492 919.627 317.222C913.105 319.801 903.853 322.152 891.872 324.275C880.042 326.398 864.723 327.46 845.917 327.46C824.835 327.46 805.725 323.896 788.587 316.767C771.448 309.639 757.798 298.643 747.637 283.78C737.627 268.765 732.622 249.731 732.622 226.677C732.622 208.477 736.793 192.097 745.134 177.537C753.476 162.826 765.533 151.223 781.307 142.73C797.08 134.085 816.19 129.762 838.637 129.762C860.325 129.762 879.056 133.402 894.829 140.682C910.754 147.962 922.963 159.186 931.457 174.352C940.102 189.367 944.424 208.629 944.424 232.137C944.424 233.351 944.348 235.777 944.197 239.417C944.197 242.906 944.045 245.181 943.742 246.242H817.479ZM860.022 209.615C859.87 204.61 858.884 200.439 857.064 197.102C855.396 193.766 853.121 191.339 850.239 189.822C847.358 188.154 843.945 187.32 840.002 187.32C836.513 187.32 833.177 188.078 829.992 189.595C826.958 190.96 824.456 193.311 822.484 196.648C820.513 199.832 819.451 204.155 819.299 209.615H860.022ZM909.012 135.222H1004.79L1038.91 241.237L1073.27 135.222H1168.59L1091.47 322H986.59L909.012 135.222ZM1222.77 129.762C1236.57 129.762 1249.16 130.824 1260.53 132.947C1271.91 135.071 1281.31 137.422 1288.74 140C1296.17 142.427 1300.72 144.247 1302.39 145.46L1275.09 197.102C1272.36 195.282 1267.13 192.78 1259.39 189.595C1251.66 186.41 1243.09 184.817 1233.69 184.817C1228.53 184.817 1224.28 185.272 1220.95 186.182C1217.61 186.941 1215.94 188.533 1215.94 190.96C1215.94 193.387 1217.99 195.434 1222.08 197.102C1226.18 198.619 1232.63 200.06 1241.42 201.425C1249.76 202.942 1258.71 205.672 1268.27 209.615C1277.97 213.407 1286.24 219.246 1293.06 227.132C1299.89 235.019 1303.3 245.636 1303.3 258.982C1303.3 273.542 1300.04 285.372 1293.52 294.472C1287.15 303.421 1278.81 310.322 1268.49 315.175C1258.33 319.877 1247.41 323.062 1235.73 324.73C1224.06 326.55 1213.06 327.46 1202.75 327.46C1186.67 327.46 1172.87 326.095 1161.34 323.365C1149.97 320.635 1140.94 317.602 1134.27 314.265C1127.6 310.928 1123.12 308.426 1120.85 306.757L1147.46 249.2C1151.41 252.233 1157.78 255.797 1166.57 259.892C1175.52 263.987 1184.55 266.035 1193.65 266.035C1201.23 266.035 1206.77 265.504 1210.25 264.442C1213.74 263.229 1215.49 261.561 1215.49 259.437C1215.49 257.769 1214.65 256.328 1212.98 255.115C1211.32 253.902 1208.66 252.764 1205.02 251.702C1201.38 250.641 1196.6 249.579 1190.69 248.517C1185.38 247.456 1179.31 245.712 1172.49 243.285C1165.82 240.858 1159.29 237.37 1152.92 232.82C1146.71 228.27 1141.55 222.355 1137.45 215.075C1133.36 207.795 1131.31 198.922 1131.31 188.457C1131.31 174.959 1135.71 163.887 1144.51 155.242C1153.3 146.597 1164.68 140.227 1178.63 136.132C1192.59 131.886 1207.3 129.762 1222.77 129.762Z"/>
</mask>
<path d="M179.399 21.7V5.69999H163.399V21.7H179.399ZM267.441 21.7H283.441V5.69999H267.441V21.7ZM253.109 269.447L267.3 276.837L267.3 276.837L253.109 269.447ZM210.794 312.217L203.14 298.167L203.116 298.18L203.092 298.193L210.794 312.217ZM73.3836 312.217L65.7299 326.268L65.7538 326.281L65.7777 326.294L73.3836 312.217ZM31.0686 269.447L16.8769 276.837L16.8769 276.837L31.0686 269.447ZM16.7361 21.7V5.69999H0.736076V21.7H16.7361ZM104.779 21.7H120.779V5.69999H104.779V21.7ZM108.874 227.36L93.9319 233.082L93.9526 233.136L93.9737 233.19L108.874 227.36ZM121.159 242.83L112.815 256.483L112.898 256.533L112.981 256.583L121.159 242.83ZM163.019 242.83L154.675 229.177L154.675 229.177L163.019 242.83ZM175.304 227.36L190.203 233.19L190.225 233.136L190.245 233.082L175.304 227.36ZM179.399 21.7V37.7H267.441V21.7V5.69999H179.399V21.7ZM267.441 21.7H251.441V204.837H267.441H283.441V21.7H267.441ZM267.441 204.837H251.441C251.441 227.485 247.073 246.393 238.917 262.058L253.109 269.447L267.3 276.837C278.254 255.799 283.441 231.633 283.441 204.837H267.441ZM253.109 269.447L238.917 262.058C230.872 277.51 219.081 289.483 203.14 298.167L210.794 312.217L218.447 326.268C239.816 314.628 256.235 298.088 267.3 276.837L253.109 269.447ZM210.794 312.217L203.092 298.193C187.529 306.74 167.523 311.46 142.316 311.46V327.46V343.46C171.406 343.46 197.051 338.018 218.495 326.242L210.794 312.217ZM142.316 327.46V311.46C117.122 311.46 96.9123 306.744 80.9895 298.141L73.3836 312.217L65.7777 326.294C87.4682 338.014 113.213 343.46 142.316 343.46V327.46ZM73.3836 312.217L81.0372 298.167C65.0959 289.483 53.3053 277.51 45.2602 262.058L31.0686 269.447L16.8769 276.837C27.9419 298.088 44.3612 314.628 65.7299 326.268L73.3836 312.217ZM31.0686 269.447L45.2602 262.058C37.1038 246.393 32.7361 227.485 32.7361 204.837H16.7361H0.736076C0.736076 231.633 5.92335 255.799 16.8769 276.837L31.0686 269.447ZM16.7361 204.837H32.7361V21.7H16.7361H0.736076V204.837H16.7361ZM16.7361 21.7V37.7H104.779V21.7V5.69999H16.7361V21.7ZM104.779 21.7H88.7786V200.06H104.779H120.779V21.7H104.779ZM104.779 200.06H88.7786C88.7786 212.283 90.2629 223.502 93.9319 233.082L108.874 227.36L123.815 221.638C122.024 216.961 120.779 209.98 120.779 200.06H104.779ZM108.874 227.36L93.9737 233.19C97.751 242.844 103.886 251.026 112.815 256.483L121.159 242.83L129.502 229.177C127.511 227.961 125.456 225.83 123.773 221.53L108.874 227.36ZM121.159 242.83L112.981 256.583C121.705 261.77 131.791 263.835 142.316 263.835V247.835V231.835C135.854 231.835 131.835 230.563 129.336 229.077L121.159 242.83ZM142.316 247.835V263.835C152.726 263.835 162.735 261.754 171.362 256.482L163.019 242.83L154.675 229.177C152.382 230.579 148.589 231.835 142.316 231.835V247.835ZM163.019 242.83L171.362 256.483C180.291 251.026 186.426 242.844 190.203 233.19L175.304 227.36L160.404 221.53C158.721 225.83 156.666 227.961 154.675 229.177L163.019 242.83ZM175.304 227.36L190.245 233.082C193.914 223.502 195.399 212.283 195.399 200.06H179.399H163.399C163.399 209.98 162.153 216.961 160.362 221.638L175.304 227.36ZM179.399 200.06H195.399V21.7H179.399H163.399V200.06H179.399ZM458.978 235.095L453.919 219.916L453.884 219.928L453.849 219.94L458.978 235.095ZM482.183 225.085L496.477 217.895L488.668 202.371L473.84 211.432L482.183 225.085ZM519.721 299.705L529.964 311.997L539.723 303.864L534.014 292.515L519.721 299.705ZM482.638 318.132L488.011 333.203L482.638 318.132ZM358.196 316.085L352.352 330.98L352.402 330.999L352.452 331.019L358.196 316.085ZM305.643 283.552L294.81 295.327L294.84 295.354L294.869 295.381L305.643 283.552ZM269.926 234.412L255.368 241.051L255.378 241.073L255.388 241.095L269.926 234.412ZM269.926 110.197L284.484 116.836L284.494 116.814L284.504 116.792L269.926 110.197ZM305.643 60.6025L316.476 72.3774L316.508 72.3482L316.54 72.3188L305.643 60.6025ZM357.968 27.8425L352.164 12.9325L352.144 12.9401L352.125 12.9477L357.968 27.8425ZM519.721 43.995L534.014 51.1853L539.723 39.8364L529.964 31.7035L519.721 43.995ZM482.183 118.615L473.84 132.267L488.668 141.329L496.477 125.805L482.183 118.615ZM458.978 108.605L453.849 123.76L453.884 123.772L453.919 123.784L458.978 108.605ZM392.093 109.742L398.313 124.484L398.313 124.484L392.093 109.742ZM368.661 126.122L356.57 115.644L356.561 115.654L356.552 115.665L368.661 126.122ZM356.148 148.19L340.913 143.303L340.884 143.394L340.856 143.485L356.148 148.19ZM356.148 195.51L340.831 200.134L340.871 200.266L340.913 200.397L356.148 195.51ZM368.661 217.805L356.436 228.128L356.56 228.274L356.687 228.418L368.661 217.805ZM392.093 233.957L398.313 219.216L398.313 219.216L392.093 233.957ZM428.266 240.1V256.1C440.591 256.1 452.564 254.158 464.108 250.25L458.978 235.095L453.849 219.94C445.676 222.706 437.174 224.1 428.266 224.1V240.1ZM458.978 235.095L464.038 250.274C474.559 246.767 483.585 242.98 490.527 238.738L482.183 225.085L473.84 211.432C469.862 213.864 463.418 216.75 453.919 219.916L458.978 235.095ZM482.183 225.085L467.89 232.275L505.427 306.895L519.721 299.705L534.014 292.515L496.477 217.895L482.183 225.085ZM519.721 299.705L509.478 287.413C504.446 291.607 494.293 296.991 477.265 303.062L482.638 318.132L488.011 333.203C505.867 326.837 520.436 319.937 529.964 311.997L519.721 299.705ZM482.638 318.132L477.265 303.062C461.952 308.521 443.299 311.46 420.986 311.46V327.46V343.46C445.993 343.46 468.441 340.18 488.011 333.203L482.638 318.132ZM420.986 327.46V311.46C400.71 311.46 381.736 307.996 363.939 301.151L358.196 316.085L352.452 331.019C374.089 339.34 396.975 343.46 420.986 343.46V327.46ZM358.196 316.085L364.039 301.19C346.098 294.152 330.261 284.334 316.418 271.724L305.643 283.552L294.869 295.381C311.662 310.678 330.86 322.548 352.352 330.98L358.196 316.085ZM305.643 283.552L316.476 271.778C302.877 259.266 292.227 244.619 284.463 227.73L269.926 234.412L255.388 241.095C264.915 261.819 278.077 279.932 294.81 295.327L305.643 283.552ZM269.926 234.412L284.484 227.774C276.861 211.057 272.958 192.641 272.958 172.305H256.958H240.958C240.958 196.862 245.701 219.851 255.368 241.051L269.926 234.412ZM256.958 172.305H272.958C272.958 151.969 276.861 133.553 284.484 116.836L269.926 110.197L255.368 103.559C245.701 124.759 240.958 147.748 240.958 172.305H256.958ZM269.926 110.197L284.504 116.792C292.278 99.6075 302.922 84.8471 316.476 72.3774L305.643 60.6025L294.81 48.8276C278.031 64.2645 264.864 82.5675 255.348 103.603L269.926 110.197ZM305.643 60.6025L316.54 72.3188C330.203 59.6121 345.921 49.7561 363.812 42.7373L357.968 27.8425L352.125 12.9477C330.583 21.3989 311.417 33.3829 294.747 48.8861L305.643 60.6025ZM357.968 27.8425L363.773 42.7524C381.72 35.7655 400.75 32.24 420.986 32.24V16.24V0.239977C396.935 0.239977 373.954 4.44941 352.164 12.9325L357.968 27.8425ZM420.986 16.24V32.24C443.299 32.24 461.952 35.1788 477.265 40.6383L482.638 25.5675L488.011 10.4966C468.441 3.5195 445.993 0.239977 420.986 0.239977V16.24ZM482.638 25.5675L477.265 40.6383C494.293 46.709 504.446 52.0933 509.478 56.2865L519.721 43.995L529.964 31.7035C520.436 23.7633 505.867 16.8626 488.011 10.4966L482.638 25.5675ZM519.721 43.995L505.427 36.8047L467.89 111.425L482.183 118.615L496.477 125.805L534.014 51.1853L519.721 43.995ZM482.183 118.615L490.527 104.962C483.585 100.72 474.559 96.9331 464.038 93.4261L458.978 108.605L453.919 123.784C463.418 126.95 469.862 129.836 473.84 132.267L482.183 118.615ZM458.978 108.605L464.108 93.4495C452.564 89.5423 440.591 87.6 428.266 87.6V103.6V119.6C437.174 119.6 445.676 120.994 453.849 123.76L458.978 108.605ZM428.266 103.6V87.6C412.458 87.6 398.13 89.8303 385.874 95.0007L392.093 109.742L398.313 124.484C405.47 121.465 415.257 119.6 428.266 119.6V103.6ZM392.093 109.742L385.874 95.0007C374.284 99.8901 364.337 106.682 356.57 115.644L368.661 126.122L380.752 136.601C384.815 131.913 390.489 127.785 398.313 124.484L392.093 109.742ZM368.661 126.122L356.552 115.665C349.446 123.892 344.177 133.126 340.913 143.303L356.148 148.19L371.384 153.077C373.276 147.178 376.349 141.7 380.77 136.58L368.661 126.122ZM356.148 148.19L340.856 143.485C337.991 152.794 336.508 162.189 336.508 171.622H352.508H368.508C368.508 165.586 369.452 159.359 371.441 152.895L356.148 148.19ZM352.508 171.622H336.508C336.508 181.174 337.981 190.693 340.831 200.134L356.148 195.51L371.466 190.886C369.462 184.25 368.508 177.845 368.508 171.622H352.508ZM356.148 195.51L340.913 200.397C344.167 210.541 349.403 219.799 356.436 228.128L368.661 217.805L380.885 207.482C376.392 202.161 373.287 196.556 371.384 190.623L356.148 195.51ZM368.661 217.805L356.687 228.418C364.45 237.176 374.361 243.842 385.874 248.699L392.093 233.957L398.313 219.216C390.412 215.883 384.701 211.78 380.634 207.192L368.661 217.805ZM392.093 233.957L385.874 248.699C398.13 253.87 412.458 256.1 428.266 256.1V240.1V224.1C415.257 224.1 405.47 222.235 398.313 219.216L392.093 233.957ZM509.174 21.7V5.69999H493.174V21.7H509.174ZM692.767 41.0375L684.463 54.7141L684.52 54.7488L684.578 54.7831L692.767 41.0375ZM740.997 94.045L755.441 87.1623L755.441 87.1623L740.997 94.045ZM740.997 249.427L755.441 256.31L755.441 256.31L740.997 249.427ZM692.767 302.662L684.506 288.96L684.484 288.973L684.463 288.986L692.767 302.662ZM509.174 322H493.174V338H509.174V322ZM597.217 99.2775V83.2775H581.217V99.2775H597.217ZM597.217 244.422H581.217V260.422H597.217V244.422ZM636.802 234.867L627.31 221.987L627.31 221.987L636.802 234.867ZM656.594 208.932L671.363 215.086L671.378 215.05L671.393 215.014L656.594 208.932ZM656.594 135.222L641.724 141.13L641.774 141.253L641.825 141.376L656.594 135.222ZM636.802 109.06L627.166 121.833L627.291 121.927L627.417 122.019L636.802 109.06ZM509.174 21.7V37.7H612.914V21.7V5.69999H509.174V21.7ZM612.914 21.7V37.7C642.817 37.7 666.358 43.7217 684.463 54.7141L692.767 41.0375L701.07 27.3609C676.709 12.57 647.015 5.69999 612.914 5.69999V21.7ZM692.767 41.0375L684.578 54.7831C703.229 65.8944 717.137 81.1678 726.553 100.928L740.997 94.045L755.441 87.1623C743.32 61.7255 725.074 41.6606 700.955 27.2919L692.767 41.0375ZM740.997 94.045L726.553 100.928C736.142 121.052 741.149 144.497 741.149 171.622H757.149H773.149C773.149 140.508 767.388 112.235 755.441 87.1623L740.997 94.045ZM757.149 171.622H741.149C741.149 198.914 736.137 222.431 726.553 242.545L740.997 249.427L755.441 256.31C767.393 231.227 773.149 202.875 773.149 171.622H757.149ZM740.997 249.427L726.553 242.545C717.129 262.321 703.199 277.691 684.506 288.96L692.767 302.662L701.027 316.365C725.104 301.851 743.327 281.731 755.441 256.31L740.997 249.427ZM692.767 302.662L684.463 288.986C666.358 299.978 642.817 306 612.914 306V322V338C647.015 338 676.709 331.13 701.07 316.339L692.767 302.662ZM612.914 322V306H509.174V322V338H612.914V322ZM509.174 322H525.174V21.7H509.174H493.174V322H509.174ZM597.217 99.2775H581.217V244.422H597.217H613.217V99.2775H597.217ZM597.217 244.422V260.422H604.952V244.422V228.422H597.217V244.422ZM604.952 244.422V260.422C620.347 260.422 634.446 256.478 646.293 247.748L636.802 234.867L627.31 221.987C621.867 225.997 614.733 228.422 604.952 228.422V244.422ZM636.802 234.867L646.293 247.748C657.508 239.485 665.814 228.405 671.363 215.086L656.594 208.932L641.825 202.779C638.274 211.3 633.385 217.51 627.31 221.987L636.802 234.867ZM656.594 208.932L671.393 215.014C676.831 201.782 679.419 187.397 679.419 172.077H663.419H647.419C647.419 183.755 645.457 193.94 641.795 202.851L656.594 208.932ZM663.419 172.077H679.419C679.419 156.637 676.841 142.215 671.363 129.069L656.594 135.222L641.825 141.376C645.447 150.07 647.419 160.218 647.419 172.077H663.419ZM656.594 135.222L671.464 129.315C666.056 115.704 657.68 104.424 646.186 96.1009L636.802 109.06L627.417 122.019C633.517 126.436 638.335 132.598 641.724 141.13L656.594 135.222ZM636.802 109.06L646.437 96.2869C634.582 87.3431 620.43 83.2775 604.952 83.2775V99.2775V115.277C614.65 115.277 621.731 117.734 627.166 121.833L636.802 109.06ZM604.952 99.2775V83.2775H597.217V99.2775V115.277H604.952V99.2775ZM817.479 246.242V230.242H797.802L801.815 249.506L817.479 246.242ZM823.167 255.57L812.804 267.761L813.13 268.038L813.47 268.297L823.167 255.57ZM835.224 261.257L830.892 276.66L830.953 276.677L831.014 276.694L835.224 261.257ZM871.624 262.395L870.107 246.467L870.107 246.467L871.624 262.395ZM889.142 259.437L885.157 243.942L885.157 243.942L889.142 259.437ZM901.882 254.205L915.777 246.273L907.275 231.38L893.006 240.892L901.882 254.205ZM933.959 310.397L942.503 323.925L955.441 315.754L947.855 302.465L933.959 310.397ZM919.627 317.222L925.509 332.102L925.597 332.067L925.685 332.031L919.627 317.222ZM891.872 324.275L889.08 308.52L889.062 308.524L889.045 308.527L891.872 324.275ZM788.587 316.767L794.731 301.994L794.731 301.994L788.587 316.767ZM747.637 283.78L734.324 292.655L734.376 292.733L734.428 292.81L747.637 283.78ZM745.134 177.537L759.017 185.491L759.035 185.46L759.052 185.429L745.134 177.537ZM781.307 142.73L788.892 156.818L788.945 156.789L788.997 156.761L781.307 142.73ZM894.829 140.682L888.124 155.21L888.151 155.222L888.177 155.234L894.829 140.682ZM931.457 174.352L917.497 182.17L917.543 182.253L917.591 182.336L931.457 174.352ZM944.197 239.417L928.211 238.751L928.197 239.084V239.417H944.197ZM943.742 246.242V262.242H955.81L959.126 250.638L943.742 246.242ZM860.022 209.615V225.615H876.514L876.014 209.13L860.022 209.615ZM857.064 197.102L842.753 204.258L842.881 204.513L843.018 204.764L857.064 197.102ZM850.239 189.822L842.223 203.669L842.502 203.831L842.787 203.981L850.239 189.822ZM829.992 189.595L836.558 204.186L836.715 204.115L836.871 204.041L829.992 189.595ZM822.484 196.648L836.088 205.069L836.175 204.929L836.259 204.787L822.484 196.648ZM819.299 209.615L803.305 209.171L802.849 225.615H819.299V209.615ZM817.479 246.242L801.815 249.506C803.352 256.882 807.265 263.053 812.804 267.761L823.167 255.57L833.529 243.379C833.354 243.23 833.251 243.121 833.196 243.058C833.142 242.996 833.127 242.968 833.131 242.975C833.135 242.982 833.144 242.999 833.151 243.017C833.158 243.035 833.153 243.027 833.143 242.979L817.479 246.242ZM823.167 255.57L813.47 268.297C818.615 272.217 824.581 274.885 830.892 276.66L835.224 261.257L839.556 245.855C836.16 244.9 834.089 243.777 832.863 242.843L823.167 255.57ZM835.224 261.257L831.014 276.694C837.631 278.498 844.691 279.305 852.059 279.305V263.305V247.305C846.991 247.305 842.827 246.747 839.434 245.821L835.224 261.257ZM852.059 263.305V279.305C859.217 279.305 866.246 278.98 873.141 278.323L871.624 262.395L870.107 246.467C864.262 247.024 858.248 247.305 852.059 247.305V263.305ZM871.624 262.395L873.141 278.323C880.209 277.65 886.887 276.538 893.126 274.933L889.142 259.437L885.157 243.942C880.78 245.067 875.779 245.927 870.107 246.467L871.624 262.395ZM889.142 259.437L893.126 274.933C899.488 273.297 905.582 270.968 910.757 267.518L901.882 254.205L893.006 240.892C891.812 241.689 889.412 242.848 885.157 243.942L889.142 259.437ZM901.882 254.205L887.986 262.137L920.064 318.33L933.959 310.397L947.855 302.465L915.777 246.273L901.882 254.205ZM933.959 310.397L925.415 296.87C923.79 297.896 920.111 299.737 913.569 302.414L919.627 317.222L925.685 332.031C932.489 329.248 938.365 326.539 942.503 323.925L933.959 310.397ZM919.627 317.222L913.744 302.343C908.689 304.342 900.654 306.469 889.08 308.52L891.872 324.275L894.664 340.03C907.053 337.834 917.521 335.26 925.509 332.102L919.627 317.222ZM891.872 324.275L889.045 308.527C878.516 310.417 864.242 311.46 845.917 311.46V327.46V343.46C865.205 343.46 881.568 342.38 894.698 340.023L891.872 324.275ZM845.917 327.46V311.46C826.659 311.46 809.675 308.21 794.731 301.994L788.587 316.767L782.442 331.541C801.775 339.582 823.011 343.46 845.917 343.46V327.46ZM788.587 316.767L794.731 301.994C780.36 296.017 769.201 286.973 760.845 274.75L747.637 283.78L734.428 292.81C746.395 310.314 762.536 323.261 782.442 331.541L788.587 316.767ZM747.637 283.78L760.949 274.905C753.12 263.16 748.622 247.444 748.622 226.677H732.622H716.622C716.622 252.018 722.134 274.37 734.324 292.655L747.637 283.78ZM732.622 226.677H748.622C748.622 211.025 752.179 197.427 759.017 185.491L745.134 177.537L731.251 169.584C721.406 186.768 716.622 205.93 716.622 226.677H732.622ZM745.134 177.537L759.052 185.429C765.819 173.496 775.606 163.971 788.892 156.818L781.307 142.73L773.721 128.642C755.46 138.475 741.133 152.156 731.216 169.646L745.134 177.537ZM781.307 142.73L788.997 156.761C801.898 149.69 818.222 145.762 838.637 145.762V129.762V113.762C814.158 113.762 792.262 118.48 773.617 128.699L781.307 142.73ZM838.637 129.762V145.762C858.569 145.762 874.908 149.11 888.124 155.21L894.829 140.682L901.534 126.155C883.204 117.695 862.081 113.762 838.637 113.762V129.762ZM894.829 140.682L888.177 155.234C901.037 161.113 910.676 169.99 917.497 182.17L931.457 174.352L945.417 166.535C935.251 148.381 920.471 134.812 901.481 126.131L894.829 140.682ZM931.457 174.352L917.591 182.336C924.426 194.207 928.424 210.471 928.424 232.137H944.424H960.424C960.424 206.788 955.778 184.528 945.323 166.369L931.457 174.352ZM944.424 232.137H928.424C928.424 232.962 928.365 235.056 928.211 238.751L944.197 239.417L960.183 240.084C960.332 236.499 960.424 233.74 960.424 232.137H944.424ZM944.197 239.417H928.197C928.197 240.971 928.162 242.025 928.118 242.676C928.097 242.996 928.081 243.106 928.087 243.057C928.092 243.026 928.108 242.913 928.142 242.734C928.176 242.562 928.241 242.252 928.357 241.847L943.742 246.242L959.126 250.638C959.768 248.392 959.958 246.143 960.048 244.804C960.156 243.18 960.197 241.352 960.197 239.417H944.197ZM943.742 246.242V230.242H817.479V246.242V262.242H943.742V246.242ZM860.022 209.615L876.014 209.13C875.81 202.38 874.454 195.571 871.111 189.441L857.064 197.102L843.018 204.764C843.314 205.308 843.93 206.84 844.029 210.1L860.022 209.615ZM857.064 197.102L871.375 189.947C868.436 184.068 863.954 178.96 857.691 175.664L850.239 189.822L842.787 203.981C842.715 203.943 842.639 203.895 842.567 203.84C842.496 203.786 842.452 203.742 842.434 203.723C842.394 203.68 842.528 203.807 842.753 204.258L857.064 197.102ZM850.239 189.822L858.256 175.976C852.523 172.657 846.239 171.32 840.002 171.32V187.32V203.32C841.651 203.32 842.192 203.652 842.223 203.669L850.239 189.822ZM840.002 187.32V171.32C834.106 171.32 828.422 172.621 823.113 175.149L829.992 189.595L836.871 204.041C837.932 203.535 838.921 203.32 840.002 203.32V187.32ZM829.992 189.595L823.426 175.004C816.907 177.938 812.075 182.812 808.709 188.508L822.484 196.648L836.259 204.787C836.573 204.255 836.776 204.061 836.795 204.043C836.805 204.033 836.785 204.054 836.733 204.088C836.681 204.123 836.62 204.158 836.558 204.186L829.992 189.595ZM822.484 196.648L808.88 188.226C804.892 194.667 803.502 202.099 803.305 209.171L819.299 209.615L835.293 210.059C835.4 206.211 836.133 204.998 836.088 205.069L822.484 196.648ZM819.299 209.615V225.615H860.022V209.615V193.615H819.299V209.615ZM909.012 135.222V119.222H885.042L894.236 141.36L909.012 135.222ZM1004.79 135.222L1020.02 130.32L1016.45 119.222H1004.79V135.222ZM1038.91 241.237L1023.68 246.14L1038.86 293.299L1054.14 246.17L1038.91 241.237ZM1073.27 135.222V119.222H1061.63L1058.05 130.29L1073.27 135.222ZM1168.59 135.222L1183.38 141.329L1192.51 119.222H1168.59V135.222ZM1091.47 322V338H1102.17L1106.26 328.106L1091.47 322ZM986.59 322L971.814 328.137L975.91 338H986.59V322ZM909.012 135.222V151.222H1004.79V135.222V119.222H909.012V135.222ZM1004.79 135.222L989.559 140.125L1023.68 246.14L1038.91 241.237L1054.15 236.335L1020.02 130.32L1004.79 135.222ZM1038.91 241.237L1054.14 246.17L1088.49 140.155L1073.27 135.222L1058.05 130.29L1023.69 236.305L1038.91 241.237ZM1073.27 135.222V151.222H1168.59V135.222V119.222H1073.27V135.222ZM1168.59 135.222L1153.8 129.116L1076.68 315.894L1091.47 322L1106.26 328.106L1183.38 141.329L1168.59 135.222ZM1091.47 322V306H986.59V322V338H1091.47V322ZM986.59 322L1001.37 315.863L923.789 129.085L909.012 135.222L894.236 141.36L971.814 328.137L986.59 322ZM1288.74 140L1283.5 155.116L1283.64 155.164L1283.78 155.21L1288.74 140ZM1302.39 145.46L1316.54 152.938L1323.02 140.677L1311.8 132.52L1302.39 145.46ZM1275.09 197.102L1266.22 210.415L1280.96 220.242L1289.24 204.58L1275.09 197.102ZM1259.39 189.595L1253.3 204.39L1253.3 204.39L1259.39 189.595ZM1220.95 186.182L1224.49 201.785L1224.83 201.709L1225.16 201.619L1220.95 186.182ZM1222.08 197.102L1216.05 211.92L1216.29 212.017L1216.53 212.106L1222.08 197.102ZM1241.42 201.425L1244.28 185.683L1244.08 185.646L1243.88 185.614L1241.42 201.425ZM1268.27 209.615L1262.16 224.405L1262.3 224.463L1262.45 224.518L1268.27 209.615ZM1293.06 227.132L1305.16 216.662L1305.16 216.662L1293.06 227.132ZM1293.52 294.472L1280.51 285.152L1280.5 285.173L1280.48 285.194L1293.52 294.472ZM1268.49 315.175L1275.21 329.696L1275.26 329.674L1275.31 329.652L1268.49 315.175ZM1235.73 324.73L1233.47 308.891L1233.37 308.905L1233.27 308.921L1235.73 324.73ZM1161.34 323.365L1157.61 338.923L1157.63 338.929L1157.65 338.934L1161.34 323.365ZM1134.27 314.265L1141.42 299.954L1141.42 299.954L1134.27 314.265ZM1120.85 306.757L1106.32 300.042L1100.83 311.92L1111.39 319.66L1120.85 306.757ZM1147.46 249.2L1157.22 236.518L1141.35 224.309L1132.94 242.484L1147.46 249.2ZM1166.57 259.892L1159.82 274.398L1159.87 274.42L1159.92 274.441L1166.57 259.892ZM1210.25 264.442L1214.91 279.749L1215.21 279.658L1215.51 279.554L1210.25 264.442ZM1212.98 255.115L1203.57 268.055L1203.57 268.055L1212.98 255.115ZM1205.02 251.702L1200.54 267.062L1200.54 267.062L1205.02 251.702ZM1190.69 248.517L1187.55 264.207L1187.71 264.238L1187.86 264.266L1190.69 248.517ZM1172.49 243.285L1167.02 258.322L1167.08 258.341L1167.13 258.36L1172.49 243.285ZM1152.92 232.82L1143.48 245.732L1143.55 245.787L1143.62 245.84L1152.92 232.82ZM1137.45 215.075L1151.4 207.231L1151.4 207.231L1137.45 215.075ZM1144.51 155.242L1155.72 166.654L1155.72 166.654L1144.51 155.242ZM1178.63 136.132L1183.14 151.485L1183.21 151.463L1183.29 151.439L1178.63 136.132ZM1222.77 129.762V145.762C1235.77 145.762 1247.35 146.764 1257.6 148.676L1260.53 132.947L1263.47 117.219C1250.96 114.885 1237.37 113.762 1222.77 113.762V129.762ZM1260.53 132.947L1257.6 148.676C1268.52 150.714 1277.08 152.89 1283.5 155.116L1288.74 140L1293.99 124.884C1285.54 121.954 1275.3 119.427 1263.47 117.219L1260.53 132.947ZM1288.74 140L1283.78 155.21C1287.33 156.371 1289.96 157.311 1291.79 158.041C1292.7 158.405 1293.27 158.663 1293.59 158.817C1294 159.021 1293.65 158.89 1292.98 158.4L1302.39 145.46L1311.8 132.52C1309.19 130.622 1305.96 129.244 1303.67 128.329C1300.94 127.239 1297.58 126.056 1293.71 124.79L1288.74 140ZM1302.39 145.46L1288.25 137.982L1260.95 189.625L1275.09 197.102L1289.24 204.58L1316.54 152.938L1302.39 145.46ZM1275.09 197.102L1283.97 183.79C1279.76 180.984 1273.15 177.957 1265.49 174.8L1259.39 189.595L1253.3 204.39C1261.11 207.603 1264.97 209.581 1266.22 210.415L1275.09 197.102ZM1259.39 189.595L1265.49 174.8C1255.59 170.727 1244.92 168.817 1233.69 168.817V184.817V200.817C1241.26 200.817 1247.73 202.093 1253.3 204.39L1259.39 189.595ZM1233.69 184.817V168.817C1227.73 168.817 1221.94 169.327 1216.74 170.746L1220.95 186.182L1225.16 201.619C1226.63 201.218 1229.33 200.817 1233.69 200.817V184.817ZM1220.95 186.182L1217.4 170.58C1214.19 171.311 1209.85 172.84 1206.15 176.372C1201.97 180.359 1199.94 185.63 1199.94 190.96H1215.94H1231.94C1231.94 192.216 1231.72 193.776 1231.03 195.43C1230.34 197.102 1229.33 198.477 1228.24 199.519C1227.19 200.523 1226.2 201.091 1225.56 201.39C1224.93 201.685 1224.53 201.777 1224.49 201.785L1220.95 186.182ZM1215.94 190.96H1199.94C1199.94 204.121 1211.17 209.931 1216.05 211.92L1222.08 197.102L1228.12 182.285C1227.11 181.874 1227.73 181.938 1228.79 183.002C1229.39 183.604 1230.21 184.601 1230.87 186.051C1231.56 187.551 1231.94 189.236 1231.94 190.96H1215.94ZM1222.08 197.102L1216.53 212.106C1222.2 214.208 1229.97 215.839 1238.97 217.236L1241.42 201.425L1243.88 185.614C1235.28 184.281 1230.16 183.031 1227.64 182.099L1222.08 197.102ZM1241.42 201.425L1238.56 217.167C1245.58 218.443 1253.43 220.802 1262.16 224.405L1268.27 209.615L1274.37 194.825C1263.99 190.541 1253.95 187.44 1244.28 185.683L1241.42 201.425ZM1268.27 209.615L1262.45 224.518C1269.73 227.363 1275.84 231.68 1280.97 237.603L1293.06 227.132L1305.16 216.662C1296.64 206.812 1286.22 199.45 1274.09 194.712L1268.27 209.615ZM1293.06 227.132L1280.97 237.603C1284.64 241.843 1287.3 248.378 1287.3 258.982H1303.3H1319.3C1319.3 242.894 1315.14 228.195 1305.16 216.662L1293.06 227.132ZM1303.3 258.982H1287.3C1287.3 271.2 1284.58 279.484 1280.51 285.152L1293.52 294.472L1306.52 303.793C1315.51 291.261 1319.3 275.885 1319.3 258.982H1303.3ZM1293.52 294.472L1280.48 285.194C1275.77 291.817 1269.61 296.968 1261.68 300.698L1268.49 315.175L1275.31 329.652C1288.01 323.675 1298.53 315.024 1306.55 303.751L1293.52 294.472ZM1268.49 315.175L1261.78 300.654C1253.1 304.668 1243.69 307.431 1233.47 308.891L1235.73 324.73L1238 340.569C1251.13 338.692 1263.56 335.086 1275.21 329.696L1268.49 315.175ZM1235.73 324.73L1233.27 308.921C1222.29 310.632 1212.13 311.46 1202.75 311.46V327.46V343.46C1213.99 343.46 1225.82 342.468 1238.2 340.539L1235.73 324.73ZM1202.75 327.46V311.46C1187.5 311.46 1175.01 310.159 1165.03 307.796L1161.34 323.365L1157.65 338.934C1170.73 342.031 1185.84 343.46 1202.75 343.46V327.46ZM1161.34 323.365L1165.08 307.807C1154.3 305.22 1146.58 302.53 1141.42 299.954L1134.27 314.265L1127.11 328.576C1135.31 332.673 1145.64 336.05 1157.61 338.923L1161.34 323.365ZM1134.27 314.265L1141.42 299.954C1134.66 296.573 1131.35 294.615 1130.31 293.855L1120.85 306.757L1111.39 319.66C1114.9 322.237 1120.53 325.284 1127.11 328.576L1134.27 314.265ZM1120.85 306.757L1135.37 313.473L1161.99 255.916L1147.46 249.2L1132.94 242.484L1106.32 300.042L1120.85 306.757ZM1147.46 249.2L1137.71 261.882C1143.09 266.022 1150.76 270.181 1159.82 274.398L1166.57 259.892L1173.33 245.387C1164.79 241.414 1159.72 238.445 1157.22 236.518L1147.46 249.2ZM1166.57 259.892L1159.92 274.441C1170.78 279.414 1182.07 282.035 1193.65 282.035V266.035V250.035C1187.03 250.035 1180.26 248.561 1173.23 245.344L1166.57 259.892ZM1193.65 266.035V282.035C1201.49 282.035 1209.03 281.54 1214.91 279.749L1210.25 264.442L1205.6 249.136C1204.5 249.468 1200.97 250.035 1193.65 250.035V266.035ZM1210.25 264.442L1215.51 279.554C1220.15 277.941 1231.49 272.644 1231.49 259.437H1215.49H1199.49C1199.49 257.702 1199.86 255.919 1200.62 254.258C1201.37 252.64 1202.32 251.479 1203.12 250.719C1204.55 249.352 1205.61 249.117 1205 249.331L1210.25 264.442ZM1215.49 259.437H1231.49C1231.49 251.431 1227.11 245.602 1222.4 242.175L1212.98 255.115L1203.57 268.055C1203.02 267.653 1201.95 266.738 1201.01 265.122C1200.02 263.401 1199.49 261.412 1199.49 259.437H1215.49ZM1212.98 255.115L1222.4 242.175C1218.47 239.319 1213.69 237.563 1209.5 236.342L1205.02 251.702L1200.54 267.062C1201.92 267.465 1202.86 267.808 1203.44 268.058C1204.07 268.328 1204 268.368 1203.57 268.055L1212.98 255.115ZM1205.02 251.702L1209.5 236.342C1205.1 235.058 1199.71 233.88 1193.52 232.769L1190.69 248.517L1187.86 264.266C1193.5 265.278 1197.66 266.223 1200.54 267.062L1205.02 251.702ZM1190.69 248.517L1193.83 232.828C1189.48 231.958 1184.18 230.459 1177.85 228.21L1172.49 243.285L1167.13 258.36C1174.45 260.965 1181.29 262.954 1187.55 264.207L1190.69 248.517ZM1172.49 243.285L1177.96 228.248C1172.78 226.365 1167.53 223.593 1162.22 219.8L1152.92 232.82L1143.62 245.84C1151.06 251.147 1158.85 255.352 1167.02 258.322L1172.49 243.285ZM1152.92 232.82L1162.37 219.908C1158.15 216.817 1154.47 212.689 1151.4 207.231L1137.45 215.075L1123.51 222.919C1128.63 232.021 1135.26 239.723 1143.48 245.732L1152.92 232.82ZM1137.45 215.075L1151.4 207.231C1148.95 202.879 1147.31 196.859 1147.31 188.457H1131.31H1115.31C1115.31 200.986 1117.77 212.711 1123.51 222.919L1137.45 215.075ZM1131.31 188.457H1147.31C1147.31 178.804 1150.29 171.991 1155.72 166.654L1144.51 155.242L1133.29 143.831C1121.13 155.784 1115.31 171.115 1115.31 188.457H1131.31ZM1144.51 155.242L1155.72 166.654C1162.33 160.159 1171.26 154.971 1183.14 151.485L1178.63 136.132L1174.13 120.78C1158.1 125.484 1144.28 133.036 1133.29 143.831L1144.51 155.242ZM1178.63 136.132L1183.29 151.439C1195.64 147.679 1208.78 145.762 1222.77 145.762V129.762V113.762C1205.81 113.762 1189.53 116.092 1173.97 120.826L1178.63 136.132Z" fill="white" fill-opacity="0.1" mask="url(#path-1-outside-1_226_24)"/>
</svg>
